<svg width="343" height="219" viewBox="0 0 343 219" fill="none" xmlns="http://www.w3.org/2000/svg">
<g clip-path="url(#clip0_4330_249)">
<rect x="0.865234" y="0.0958252" width="341.746" height="218.493" rx="6.72287" fill="url(#paint0_linear_4330_249)"/>
<path opacity="0.4" d="M69.489 102.62C44.3086 102.516 20.1137 112.401 2.20891 130.109C-15.6958 147.817 -25.8492 171.904 -26.0263 197.088C-26.0444 209.511 -23.582 221.812 -18.7832 233.27C-13.9844 244.728 -6.94611 255.113 1.91897 263.814C5.67346 267.503 10.7266 269.571 15.9902 269.571C21.2538 269.571 26.3069 267.503 30.0614 263.814C31.9089 261.995 33.3761 259.827 34.3776 257.436C35.3791 255.045 35.8946 252.479 35.8946 249.886C35.8946 247.294 35.3791 244.728 34.3776 242.336C33.3761 239.945 31.9089 237.778 30.0614 235.959C24.8956 230.877 20.7928 224.818 17.9923 218.134C15.1918 211.45 13.7496 204.276 13.7496 197.029C13.7496 189.782 15.1918 182.607 17.9923 175.924C20.7928 169.24 24.8956 163.18 30.0614 158.099C40.5619 147.766 54.7022 141.975 69.4326 141.975C84.1631 141.975 98.3033 147.766 108.804 158.099C113.97 163.18 118.072 169.24 120.873 175.924C123.673 182.607 125.116 189.782 125.116 197.029C125.116 204.276 123.673 211.45 120.873 218.134C118.072 224.818 113.97 230.877 108.804 235.959C106.957 237.777 105.489 239.944 104.488 242.335C103.486 244.726 102.971 247.292 102.971 249.884C102.971 252.476 103.486 255.042 104.488 257.432C105.489 259.823 106.957 261.99 108.804 263.808C112.558 267.498 117.611 269.565 122.875 269.565C128.139 269.565 133.192 267.498 136.946 263.808C145.833 255.118 152.894 244.739 157.714 233.282C162.535 221.824 165.016 209.519 165.015 197.088C164.838 171.902 154.683 147.814 136.776 130.105C118.869 112.396 94.6712 102.513 69.489 102.62Z" fill="url(#paint1_linear_4330_249)"/>
<path d="M317.384 -59.9581C295.886 -60.0564 275.226 -51.6328 259.937 -36.5352C244.648 -21.4376 235.979 -0.89888 235.831 20.5753C235.831 42.1804 244.423 62.9006 259.717 78.1777C275.011 93.4548 295.755 102.037 317.384 102.037C339.013 102.037 359.756 93.4548 375.051 78.1777C390.345 62.9006 398.937 42.1804 398.937 20.5753C398.789 -0.89888 390.12 -21.4376 374.831 -36.5352C359.542 -51.6328 338.882 -60.0564 317.384 -59.9581ZM317.384 63.1094C308.982 63.0141 300.796 60.4382 293.857 55.7061C286.917 50.9739 281.534 44.297 278.385 36.5157C275.236 28.7344 274.461 20.1964 276.159 11.9765C277.857 3.75661 281.952 -3.77791 287.927 -9.6787C293.902 -15.5795 301.491 -19.5828 309.739 -21.1848C317.987 -22.7868 326.525 -21.9158 334.279 -18.6816C342.032 -15.4473 348.655 -9.99429 353.312 -3.00884C357.97 3.9766 360.455 12.1823 360.455 20.5753C360.423 26.1931 359.283 31.7496 357.101 36.9274C354.919 42.1053 351.738 46.8032 347.738 50.7529C343.739 54.7026 339 57.8267 333.792 59.9468C328.583 62.0669 323.008 63.1416 317.384 63.1094Z" fill="url(#paint2_linear_4330_249)"/>
<g opacity="0.6">
<path d="M93.8753 111.805C95.0205 110.66 95.6639 109.107 95.6639 107.487C95.6639 105.868 95.0205 104.315 93.8753 103.169" stroke="white" stroke-width="2.8012" stroke-linecap="round" stroke-linejoin="round"/>
<path d="M98.5739 114.671C100.201 112.63 101.086 110.096 101.086 107.486C101.085 104.876 100.199 102.343 98.5721 100.301" stroke="white" stroke-width="2.8012" stroke-linecap="round" stroke-linejoin="round"/>
<path d="M102.716 117.497C104.895 114.632 106.08 111.135 106.091 107.535C106.101 103.936 104.937 100.432 102.774 97.5546" stroke="white" stroke-width="2.8012" stroke-linecap="round" stroke-linejoin="round"/>
<path d="M107.342 94.6132C110.138 98.4766 111.601 103.146 111.508 107.914C111.416 112.683 109.773 117.291 106.828 121.043" stroke="white" stroke-width="2.8012" stroke-linecap="round" stroke-linejoin="round"/>
</g>
<rect x="37.5607" y="89.482" width="47.4803" height="34.4469" rx="7.00299" fill="url(#paint3_linear_4330_249)" stroke="url(#paint4_linear_4330_249)" stroke-width="0.560239"/>
<mask id="mask0_4330_249" style="mask-type:alpha" maskUnits="userSpaceOnUse" x="37" y="89" width="48" height="35">
<rect x="38.1209" y="90.0423" width="46.3598" height="33.3264" rx="6.44275" fill="#DCD59E" stroke="black" stroke-width="0.560239"/>
</mask>
<g mask="url(#mask0_4330_249)">
<path opacity="0.5" fill-rule="evenodd" clip-rule="evenodd" d="M62.4059 90.8722C61.9957 90.0367 60.8046 90.0367 60.3943 90.8722L56.1782 99.459C56.1782 99.459 58.267 105.767 56.1782 112.962L60.375 122.473C60.7681 123.363 62.0321 123.363 62.4252 122.473L66.622 112.962C66.622 112.962 64.5333 109.052 66.622 99.459L62.4059 90.8722Z" stroke="#BFB985" stroke-width="0.728311" stroke-linejoin="bevel"/>
<path opacity="0.5" d="M37.3794 99.4131H56.0458" stroke="#BFB985" stroke-width="0.728311" stroke-linejoin="bevel"/>
<path opacity="0.5" d="M66.1787 99.4131H85.3784" stroke="#BFB985" stroke-width="0.728311" stroke-linejoin="bevel"/>
<path opacity="0.5" d="M37.3794 112.858H56.0458" stroke="#BFB985" stroke-width="0.728311" stroke-linejoin="bevel"/>
<path opacity="0.5" d="M66.1787 112.858H85.3784" stroke="#BFB985" stroke-width="0.728311" stroke-linejoin="bevel"/>
</g>
<path fill-rule="evenodd" clip-rule="evenodd" d="M69.6128 26.4429C69.8712 26.1773 70.0742 25.8629 70.21 25.518C70.3457 25.1732 70.4114 24.8047 70.4033 24.4342C70.3952 24.0637 70.3135 23.6985 70.1628 23.3599C70.0122 23.0213 69.7957 22.7161 69.5259 22.462C67.8193 20.8443 65.6782 19.759 63.3646 19.3387C61.051 18.9185 58.665 19.1816 56.4986 20.0959C54.3321 21.0101 52.479 22.5359 51.1659 24.4866C49.8528 26.4373 49.1366 28.7284 49.1049 31.0797C49.1366 33.4309 49.8528 35.722 51.1659 37.6727C52.479 39.6234 54.3321 41.1492 56.4986 42.0635C58.665 42.9777 61.051 43.2408 63.3646 42.8206C65.6782 42.4004 67.8193 41.315 69.5259 39.6973C69.7957 39.4432 70.0122 39.138 70.1628 38.7994C70.3135 38.4608 70.3952 38.0956 70.4033 37.7251C70.4114 37.3546 70.3457 36.9862 70.21 36.6413C70.0742 36.2965 69.8712 35.9821 69.6128 35.7165C69.0872 35.1774 68.3708 34.8664 67.6181 34.8504C66.8653 34.8345 66.1365 35.1149 65.5885 35.6312C64.3729 36.7783 62.7582 37.4069 61.087 37.3836C59.4157 37.3603 57.8192 36.687 56.636 35.5064C56.0538 34.9256 55.5919 34.2356 55.2767 33.476C54.9616 32.7164 54.7993 31.9021 54.7993 31.0797C54.7993 30.2573 54.9616 29.443 55.2767 28.6834C55.5919 27.9237 56.0538 27.2338 56.636 26.6529C57.8192 25.4724 59.4157 24.7991 61.087 24.7758C62.7582 24.7525 64.3729 25.3811 65.5885 26.5282C66.1365 27.0446 66.8655 27.325 67.6183 27.3088C68.3711 27.2927 69.0874 26.9814 69.6128 26.4421V26.4429ZM22.8309 23.0757C25.3914 20.5439 28.8514 19.1306 32.4523 19.1458C36.0532 19.1306 39.5131 20.5439 42.0736 23.0757C44.6342 25.6076 46.0863 29.0514 46.1116 32.6522C46.1117 34.4293 45.7566 36.1885 45.0673 37.8265C44.3781 39.4645 43.3684 40.9483 42.0977 42.1906C41.5609 42.7182 40.8383 43.0137 40.0856 43.0137C39.3329 43.0137 38.6103 42.7182 38.0734 42.1906C37.8092 41.9306 37.5994 41.6207 37.4562 41.2788C37.313 40.937 37.2393 40.57 37.2393 40.1994C37.2393 39.8287 37.313 39.4618 37.4562 39.1199C37.5994 38.7781 37.8092 38.4681 38.0734 38.2082C38.8123 37.4816 39.399 36.6152 39.7996 35.6595C40.2001 34.7038 40.4064 33.678 40.4064 32.6418C40.4064 31.6055 40.2001 30.5797 39.7996 29.624C39.399 28.6683 38.8123 27.8019 38.0734 27.0753C36.5717 25.598 34.5496 24.7701 32.443 24.7701C30.3365 24.7701 28.3143 25.598 26.8126 27.0753C26.0738 27.8019 25.487 28.6683 25.0865 29.624C24.6859 30.5797 24.4796 31.6055 24.4796 32.6418C24.4796 33.678 24.6859 34.7038 25.0865 35.6595C25.487 36.6152 26.0738 37.4816 26.8126 38.2082C27.0768 38.4681 27.2866 38.7781 27.4298 39.1199C27.573 39.4618 27.6468 39.8287 27.6468 40.1994C27.6468 40.57 27.573 40.937 27.4298 41.2788C27.2866 41.6207 27.0768 41.9306 26.8126 42.1906C26.2757 42.7182 25.5532 43.0137 24.8005 43.0137C24.0478 43.0137 23.3252 42.7182 22.7883 42.1906C21.521 40.9467 20.5147 39.4623 19.8287 37.8244C19.1426 36.1864 18.7905 34.428 18.793 32.6522C18.8183 29.0514 20.2704 25.6076 22.8309 23.0757ZM84.8009 19.146C81.6183 19.1315 78.5599 20.3799 76.2966 22.6174C74.0333 24.8549 72.7499 27.8988 72.728 31.0813C72.728 34.2832 73.9999 37.354 76.2641 39.6181C78.5282 41.8823 81.599 43.1542 84.8009 43.1542C88.0029 43.1542 91.0736 41.8823 93.3377 39.6181C95.6018 37.354 96.8738 34.2832 96.8738 31.0813C96.8519 27.8988 95.5685 24.8549 93.3052 22.6174C91.0419 20.3799 87.9835 19.1315 84.8009 19.146ZM84.8009 37.385C83.5571 37.3708 82.3453 36.9891 81.318 36.2878C80.2907 35.5865 79.4938 34.5969 79.0276 33.4437C78.5614 32.2905 78.4467 31.0252 78.6981 29.8069C78.9494 28.5887 79.5556 27.4721 80.4402 26.5976C81.3247 25.7231 82.4482 25.1298 83.6692 24.8923C84.8902 24.6549 86.1542 24.784 87.302 25.2633C88.4498 25.7426 89.4301 26.5508 90.1197 27.5861C90.8092 28.6213 91.1771 29.8374 91.177 31.0813C91.1723 31.9139 91.0036 32.7374 90.6806 33.5047C90.3576 34.2721 89.8866 34.9684 89.2945 35.5537C88.7024 36.1391 88.0009 36.6021 87.2299 36.9163C86.4588 37.2305 85.6335 37.3897 84.8009 37.385ZM113.405 19.146C109.804 19.131 106.344 20.5443 103.784 23.0762C101.223 25.608 99.7715 29.0517 99.7462 32.6524C99.7436 34.4285 100.096 36.1873 100.782 37.8255C101.468 39.4637 102.475 40.9484 103.742 42.1924C104.279 42.7199 105.002 43.0155 105.754 43.0155C106.507 43.0155 107.23 42.7199 107.767 42.1924C108.031 41.9324 108.241 41.6225 108.384 41.2806C108.527 40.9388 108.601 40.5718 108.601 40.2012C108.601 39.8305 108.527 39.4636 108.384 39.1217C108.241 38.7799 108.031 38.4699 107.767 38.21C107.028 37.4834 106.441 36.6171 106.041 35.6614C105.64 34.7058 105.434 33.6801 105.434 32.6439C105.434 31.6078 105.64 30.582 106.041 29.6264C106.441 28.6708 107.028 27.8045 107.767 27.0779C109.268 25.6006 111.29 24.7727 113.397 24.7727C115.503 24.7727 117.525 25.6006 119.027 27.0779C119.765 27.8045 120.352 28.6708 120.752 29.6264C121.153 30.582 121.359 31.6078 121.359 32.6439C121.359 33.6801 121.153 34.7058 120.752 35.6614C120.352 36.6171 119.765 37.4834 119.027 38.21C118.762 38.4699 118.553 38.7797 118.409 39.1215C118.266 39.4633 118.192 39.8302 118.192 40.2008C118.192 40.5714 118.266 40.9382 118.409 41.28C118.553 41.6218 118.762 41.9317 119.027 42.1916C119.564 42.7191 120.286 43.0147 121.039 43.0147C121.791 43.0147 122.514 42.7191 123.051 42.1916C124.322 40.9492 125.331 39.4653 126.021 37.8271C126.71 36.189 127.065 34.4296 127.065 32.6524C127.039 29.0514 125.587 25.6075 123.027 23.0756C120.466 20.5437 117.006 19.1306 113.405 19.146ZM64.0227 31.065C64.0313 32.619 62.7641 33.8858 61.1923 33.8945C59.6206 33.9032 58.3394 32.6505 58.3308 31.0965C58.3222 29.5425 59.5894 28.2757 61.1612 28.267C62.733 28.2583 64.0141 29.511 64.0227 31.065Z" fill="white"/>
<path d="M142.926 28.9264H137.344V42.6234H139.785V37.7132H142.926C145.967 37.7132 147.267 35.5463 147.267 33.3198C147.267 31.133 145.967 28.9264 142.926 28.9264ZM142.806 35.5264H139.785V31.0933H142.866C144.266 31.0933 144.827 32.2463 144.827 33.3198C144.827 34.433 144.246 35.5264 142.806 35.5264Z" fill="white"/>
<path d="M157.946 37.8921C157.946 34.9897 155.845 33.1409 153.164 33.1409C150.503 33.1409 148.263 35.0095 148.263 37.9716C148.263 40.874 150.383 42.8222 153.184 42.8222C154.885 42.8222 156.525 42.1066 157.386 40.7548L155.845 39.5819C155.285 40.3373 154.325 40.7349 153.304 40.7349C151.924 40.7349 150.924 40.0788 150.664 38.7867H157.886C157.926 38.4487 157.946 38.1505 157.946 37.8921ZM150.664 37.1764C150.944 35.765 151.944 35.1686 153.204 35.1686C154.505 35.1686 155.485 35.9041 155.625 37.1764H150.664Z" fill="white"/>
<path d="M161.378 31.471C162.218 31.471 162.898 30.8547 162.898 30.0595C162.898 29.2445 162.218 28.6481 161.378 28.6481C160.558 28.6481 159.877 29.2445 159.877 30.0595C159.877 30.8547 160.558 31.471 161.378 31.471ZM157.537 47.156H158.757C161.378 47.156 162.538 45.5457 162.538 42.9614V33.3397L160.218 33.3397V42.9614C160.238 44.015 159.897 45.009 158.677 45.009H157.537V47.156Z" fill="white"/>
<path d="M169.675 42.8222C172.336 42.8222 174.657 40.8939 174.657 37.9517C174.657 35.0095 172.336 33.1409 169.675 33.1409C167.014 33.1409 164.713 35.0095 164.713 37.9517C164.713 40.8939 167.014 42.8222 169.675 42.8222ZM169.675 40.6752C168.235 40.6752 167.054 39.5819 167.054 37.9517C167.054 36.3614 168.235 35.2879 169.675 35.2879C171.115 35.2879 172.316 36.3614 172.316 37.9517C172.316 39.5819 171.115 40.6752 169.675 40.6752Z" fill="white"/>
<path d="M181.806 33.3397H179.825V29.9204H177.505V33.3397H175.824V35.1885H177.505V42.6234H179.825V35.1885H181.806V33.3397Z" fill="white"/>
<path d="M190.547 33.3397V34.5722C189.907 33.5981 188.607 33.1409 187.426 33.1409C184.965 33.1409 182.845 34.9897 182.845 37.9716C182.845 40.9337 184.985 42.8222 187.446 42.8222C188.587 42.8222 189.907 42.365 190.547 41.371V42.6234H192.868V33.3397H190.547ZM187.806 40.6554C186.366 40.6554 185.185 39.5023 185.185 37.9517C185.185 36.4011 186.366 35.2879 187.806 35.2879C189.147 35.2879 190.507 36.3216 190.507 37.9517C190.507 39.5819 189.227 40.6554 187.806 40.6554Z" fill="white"/>
<path d="M306.886 182.439C305.324 181.882 303.673 181.602 302.01 181.614C296.632 181.614 292.834 184.265 292.807 188.072C292.774 190.869 295.506 192.445 297.573 193.379C299.694 194.34 300.403 194.945 300.396 195.804C300.383 197.11 298.703 197.702 297.14 197.702C294.992 197.702 293.819 197.409 292.014 196.676L291.345 196.37L290.583 200.752C291.89 201.285 294.246 201.742 296.679 201.782C302.396 201.782 306.134 199.146 306.177 195.096C306.224 192.862 304.746 191.175 301.633 189.78C299.741 188.875 298.568 188.269 298.568 187.351C298.568 186.539 299.573 185.67 301.674 185.67C303.072 185.637 304.461 185.894 305.75 186.424L306.255 186.644L307.018 182.41L306.886 182.439ZM320.841 181.969H316.64C315.332 181.969 314.348 182.321 313.776 183.591L305.697 201.509H311.414L312.556 198.571L319.534 198.577C319.698 199.265 320.202 201.509 320.202 201.509H325.244L320.841 181.969ZM285.074 181.804H290.522L287.114 201.354H281.673L285.074 181.798V181.804ZM271.244 192.579L271.808 195.294L277.132 181.969H282.903L274.329 201.482H268.572L263.867 184.96C263.79 184.687 263.611 184.453 263.366 184.305C261.67 183.447 259.873 182.796 258.015 182.367L258.089 181.956H266.858C268.048 182.002 269.005 182.367 269.325 183.611L271.24 192.589V192.579H271.244ZM314.119 194.573L316.29 189.105C316.263 189.164 316.737 187.977 317.013 187.243L317.386 188.931L318.646 194.57H314.116V194.573H314.119Z" fill="white"/>
<path d="M21.3342 199.858H24.494L24.494 201.095H19.8014L19.8014 191.75H21.3342L21.3342 199.858ZM27.2952 191.75V197.707C27.2952 198.415 27.479 198.948 27.8465 199.307C28.2229 199.665 28.7429 199.845 29.4062 199.845C30.0785 199.845 30.5984 199.665 30.9659 199.307C31.3424 198.948 31.5306 198.415 31.5306 197.707V191.75H33.0634V197.68C33.0634 198.442 32.8976 199.087 32.5659 199.616C32.2343 200.145 31.7906 200.539 31.2348 200.799C30.679 201.059 30.065 201.189 29.3927 201.189C28.7204 201.189 28.1064 201.059 27.5507 200.799C27.0039 200.539 26.5691 200.145 26.2464 199.616C25.9237 199.087 25.7624 198.442 25.7624 197.68V191.75H27.2952ZM34.5482 196.403C34.5482 195.488 34.7589 194.668 35.1802 193.942C35.6104 193.216 36.1886 192.651 36.9147 192.248C37.6497 191.836 38.452 191.629 39.3215 191.629C40.3164 191.629 41.1994 191.876 41.9703 192.369C42.7501 192.853 43.3148 193.543 43.6644 194.44H41.8224C41.5803 193.947 41.2442 193.579 40.8139 193.337C40.3837 193.095 39.8862 192.974 39.3215 192.974C38.703 192.974 38.1517 193.113 37.6676 193.391C37.1836 193.669 36.8026 194.068 36.5247 194.587C36.2558 195.107 36.1214 195.712 36.1214 196.403C36.1214 197.093 36.2558 197.698 36.5247 198.218C36.8026 198.738 37.1836 199.141 37.6676 199.428C38.1517 199.706 38.703 199.845 39.3215 199.845C39.8862 199.845 40.3837 199.724 40.8139 199.482C41.2442 199.24 41.5803 198.872 41.8224 198.379H43.6644C43.3148 199.276 42.7501 199.966 41.9703 200.45C41.1994 200.934 40.3164 201.176 39.3215 201.176C38.443 201.176 37.6407 200.974 36.9147 200.571C36.1886 200.158 35.6104 199.589 35.1802 198.863C34.7589 198.137 34.5482 197.317 34.5482 196.403ZM51.0924 199.186H47.1797L46.5074 201.095H44.9073L48.2553 191.737H50.0302L53.3781 201.095H51.7647L51.0924 199.186ZM50.6621 197.935L49.1427 193.592L47.6099 197.935H50.6621ZM57.9129 201.189C57.2855 201.189 56.7207 201.082 56.2188 200.867C55.7168 200.643 55.3224 200.329 55.0355 199.925C54.7487 199.522 54.6053 199.051 54.6053 198.514H56.2457C56.2815 198.917 56.4384 199.249 56.7163 199.509C57.0031 199.769 57.402 199.899 57.9129 199.899C58.4418 199.899 58.8541 199.773 59.1499 199.522C59.4457 199.262 59.5936 198.93 59.5936 198.527C59.5936 198.213 59.4995 197.958 59.3113 197.761C59.132 197.563 58.9034 197.411 58.6256 197.304C58.3566 197.196 57.9802 197.079 57.4961 196.954C56.8866 196.793 56.3891 196.631 56.0036 196.47C55.6272 196.3 55.3045 196.04 55.0355 195.69C54.7666 195.34 54.6322 194.874 54.6322 194.292C54.6322 193.754 54.7666 193.283 55.0355 192.88C55.3045 192.476 55.6809 192.167 56.165 191.952C56.649 191.737 57.2093 191.629 57.8457 191.629C58.751 191.629 59.4906 191.858 60.0642 192.315C60.6469 192.763 60.9696 193.382 61.0323 194.171H59.3382C59.3113 193.83 59.1499 193.539 58.8541 193.297C58.5583 193.055 58.1684 192.934 57.6844 192.934C57.2451 192.934 56.8866 193.046 56.6087 193.27C56.3308 193.494 56.1919 193.817 56.1919 194.238C56.1919 194.525 56.277 194.762 56.4473 194.951C56.6266 195.13 56.8507 195.273 57.1196 195.381C57.3885 195.488 57.7561 195.605 58.2222 195.73C58.8407 195.901 59.3427 196.071 59.7281 196.241C60.1225 196.412 60.4542 196.676 60.7231 197.035C61.001 197.384 61.1399 197.855 61.1399 198.446C61.1399 198.921 61.0099 199.37 60.75 199.791C60.499 200.212 60.127 200.553 59.634 200.813C59.1499 201.064 58.5763 201.189 57.9129 201.189ZM65.9304 196.403C65.9304 195.488 66.141 194.668 66.5623 193.942C66.9926 193.216 67.5707 192.651 68.2968 192.248C69.0319 191.836 69.8341 191.629 70.7036 191.629C71.6986 191.629 72.5815 191.876 73.3524 192.369C74.1323 192.853 74.697 193.543 75.0466 194.44H73.2045C72.9625 193.947 72.6263 193.579 72.1961 193.337C71.7658 193.095 71.2683 192.974 70.7036 192.974C70.0851 192.974 69.5338 193.113 69.0498 193.391C68.5657 193.669 68.1848 194.068 67.9069 194.587C67.638 195.107 67.5035 195.712 67.5035 196.403C67.5035 197.093 67.638 197.698 67.9069 198.218C68.1848 198.738 68.5657 199.141 69.0498 199.428C69.5338 199.706 70.0851 199.845 70.7036 199.845C71.2683 199.845 71.7658 199.724 72.1961 199.482C72.6263 199.24 72.9625 198.872 73.2045 198.379H75.0466C74.697 199.276 74.1323 199.966 73.3524 200.45C72.5815 200.934 71.6986 201.176 70.7036 201.176C69.8252 201.176 69.0229 200.974 68.2968 200.571C67.5707 200.158 66.9926 199.589 66.5623 198.863C66.141 198.137 65.9304 197.317 65.9304 196.403ZM82.4745 199.186H78.5618L77.8895 201.095H76.2895L79.6375 191.737H81.4123L84.7603 201.095H83.1468L82.4745 199.186ZM82.0442 197.935L80.5249 193.592L78.9921 197.935H82.0442ZM91.2178 196.295C91.7198 196.385 92.1456 196.649 92.4952 197.088C92.8447 197.528 93.0195 198.025 93.0195 198.581C93.0195 199.056 92.894 199.486 92.6431 199.872C92.401 200.248 92.047 200.548 91.5808 200.773C91.1147 200.988 90.5724 201.095 89.9539 201.095H86.216V191.75H89.7791C90.4155 191.75 90.9623 191.858 91.4195 192.073C91.8767 192.288 92.2218 192.58 92.4548 192.947C92.6879 193.306 92.8044 193.709 92.8044 194.157C92.8044 194.695 92.661 195.143 92.3741 195.502C92.0873 195.86 91.7019 196.125 91.2178 196.295ZM87.7488 195.677H89.6447C90.1466 195.677 90.5366 195.565 90.8144 195.34C91.1013 195.107 91.2447 194.776 91.2447 194.345C91.2447 193.924 91.1013 193.597 90.8144 193.364C90.5366 193.122 90.1466 193.001 89.6447 193.001H87.7488V195.677ZM89.8195 199.845C90.3394 199.845 90.7472 199.719 91.043 199.468C91.3388 199.217 91.4867 198.868 91.4867 198.42C91.4867 197.962 91.3299 197.599 91.0161 197.33C90.7024 197.061 90.2856 196.927 89.7657 196.927H87.7488V199.845H89.8195ZM99.5392 201.095L97.3878 197.357H96.2181V201.095H94.6852V191.75H97.9122C98.6293 191.75 99.2344 191.876 99.7274 192.127C100.229 192.378 100.601 192.714 100.843 193.135C101.094 193.557 101.22 194.027 101.22 194.547C101.22 195.157 101.041 195.712 100.682 196.214C100.332 196.707 99.7901 197.044 99.0551 197.223L101.368 201.095H99.5392ZM96.2181 196.134H97.9122C98.4859 196.134 98.9162 195.99 99.203 195.703C99.4988 195.417 99.6467 195.031 99.6467 194.547C99.6467 194.063 99.5033 193.687 99.2165 193.418C98.9296 193.14 98.4949 193.001 97.9122 193.001H96.2181V196.134ZM108.815 199.186H104.902L104.23 201.095H102.629L105.977 191.737H107.752L111.1 201.095H109.487L108.815 199.186ZM108.384 197.935L106.865 193.592L105.332 197.935H108.384ZM114.089 199.858H117.249V201.095L112.556 201.095V191.75H114.089V199.858ZM127.657 199.186H123.744L123.072 201.095H121.472L124.82 191.737H126.595L129.943 201.095H128.329L127.657 199.186ZM127.227 197.935L125.707 193.592L124.174 197.935H127.227ZM136.252 201.095L134.101 197.357H132.931V201.095H131.398V191.75H134.625C135.342 191.75 135.948 191.876 136.441 192.127C136.943 192.378 137.315 192.714 137.557 193.135C137.808 193.557 137.933 194.027 137.933 194.547C137.933 195.157 137.754 195.712 137.395 196.214C137.046 196.707 136.503 197.044 135.768 197.223L138.081 201.095H136.252ZM132.931 196.134H134.625C135.199 196.134 135.629 195.99 135.916 195.703C136.212 195.417 136.36 195.031 136.36 194.547C136.36 194.063 136.216 193.687 135.93 193.418C135.643 193.14 135.208 193.001 134.625 193.001H132.931V196.134ZM145.528 199.186H141.615L140.943 201.095H139.343L142.691 191.737H144.465L147.813 201.095H146.2L145.528 199.186ZM145.097 197.935L143.578 193.592L142.045 197.935H145.097ZM150.789 191.75V197.707C150.789 198.415 150.972 198.948 151.34 199.307C151.716 199.665 152.236 199.845 152.9 199.845C153.572 199.845 154.092 199.665 154.459 199.307C154.836 198.948 155.024 198.415 155.024 197.707V191.75H156.557V197.68C156.557 198.442 156.391 199.087 156.059 199.616C155.728 200.145 155.284 200.539 154.728 200.799C154.172 201.059 153.558 201.189 152.886 201.189C152.214 201.189 151.6 201.059 151.044 200.799C150.497 200.539 150.062 200.145 149.74 199.616C149.417 199.087 149.256 198.442 149.256 197.68V191.75H150.789ZM154.284 189.747L151.313 191.213V190.083L154.284 188.443V189.747ZM163.648 191.75V198.487C163.648 199.32 163.393 199.979 162.882 200.463C162.38 200.947 161.717 201.189 160.892 201.189C160.067 201.189 159.4 200.947 158.889 200.463C158.387 199.979 158.136 199.32 158.136 198.487H159.682C159.691 198.899 159.794 199.226 159.991 199.468C160.197 199.71 160.498 199.831 160.892 199.831C161.286 199.831 161.587 199.71 161.793 199.468C161.999 199.217 162.102 198.89 162.102 198.487V191.75H163.648ZM170.404 201.189C169.535 201.189 168.733 200.988 167.998 200.584C167.271 200.172 166.693 199.603 166.263 198.877C165.842 198.142 165.631 197.317 165.631 196.403C165.631 195.488 165.842 194.668 166.263 193.942C166.693 193.216 167.271 192.651 167.998 192.248C168.733 191.836 169.535 191.629 170.404 191.629C171.283 191.629 172.085 191.836 172.811 192.248C173.546 192.651 174.124 193.216 174.546 193.942C174.967 194.668 175.178 195.488 175.178 196.403C175.178 197.317 174.967 198.142 174.546 198.877C174.124 199.603 173.546 200.172 172.811 200.584C172.085 200.988 171.283 201.189 170.404 201.189ZM170.404 199.858C171.023 199.858 171.574 199.719 172.058 199.441C172.542 199.155 172.919 198.751 173.188 198.231C173.465 197.702 173.604 197.093 173.604 196.403C173.604 195.712 173.465 195.107 173.188 194.587C172.919 194.068 172.542 193.669 172.058 193.391C171.574 193.113 171.023 192.974 170.404 192.974C169.786 192.974 169.235 193.113 168.75 193.391C168.266 193.669 167.885 194.068 167.608 194.587C167.339 195.107 167.204 195.712 167.204 196.403C167.204 197.093 167.339 197.702 167.608 198.231C167.885 198.751 168.266 199.155 168.75 199.441C169.235 199.719 169.786 199.858 170.404 199.858Z" fill="white"/>
</g>
<defs>
<linearGradient id="paint0_linear_4330_249" x1="-143.5" y1="43.0298" x2="372.351" y2="315.401" gradientUnits="userSpaceOnUse">
<stop stop-color="#00A5F0"/>
<stop offset="1" stop-color="#00D7D7"/>
</linearGradient>
<linearGradient id="paint1_linear_4330_249" x1="139.254" y1="279.751" x2="18.5344" y2="155.014" gradientUnits="userSpaceOnUse">
<stop stop-color="white"/>
<stop offset="1" stop-color="white" stop-opacity="0"/>
</linearGradient>
<linearGradient id="paint2_linear_4330_249" x1="274.516" y1="-122.779" x2="361.756" y2="88.721" gradientUnits="userSpaceOnUse">
<stop stop-color="white"/>
<stop offset="1" stop-color="white" stop-opacity="0"/>
</linearGradient>
<linearGradient id="paint3_linear_4330_249" x1="61.3008" y1="89.7621" x2="77.4622" y2="136.526" gradientUnits="userSpaceOnUse">
<stop stop-color="#DCD59E"/>
<stop offset="1" stop-color="#CBBB82"/>
</linearGradient>
<linearGradient id="paint4_linear_4330_249" x1="40.9688" y1="91.6911" x2="61.3008" y2="123.649" gradientUnits="userSpaceOnUse">
<stop stop-color="#FBF3C0"/>
<stop offset="1" stop-color="#CCBC84"/>
</linearGradient>
<clipPath id="clip0_4330_249">
<rect x="0.865234" y="0.0958252" width="341.746" height="218.493" rx="6.72287" fill="white"/>
</clipPath>
</defs>
</svg>
